<svg width="2045" height="1231" viewBox="0 0 2045 1231" fill="none" xmlns="http://www.w3.org/2000/svg">
<path d="M1871.09 1229.78C1871.09 1229.78 1602.29 1202.57 1488.79 1146.4C1349.39 1077.41 1463.6 994.512 1347.8 916.935C1191.51 812.232 876.699 864.656 738.726 754.863C601.146 645.384 852.521 554.564 744.577 438.759C662.392 350.59 373.427 343.869 395.331 250.952C424.536 127.061 826.645 295.053 1090.01 271.834C1329.12 250.753 1440.93 207.407 1652.39 154.559C1747.85 130.702 1892.19 89.8849 1892.19 89.8849L2037.88 65.5114M1899.19 832.875C1899.19 832.875 1906.78 726.723 1829.54 672.641C1769.08 630.316 1698.94 621.225 1613.22 589.465C1475.43 538.411 1309.91 539.956 1252.45 463.609C1218.6 418.634 1278.87 389.932 1254.67 343.873C1196.16 232.518 745.914 259.101 770.721 147.225C788.173 68.5183 896.072 16.1326 1063.87 2.68856C1301.48 -16.3478 1321.14 142.49 1526.91 208.292C1641.53 244.949 1703.02 274.713 1836.63 289.484C1916.29 298.292 2044 295.717 2044 295.717M1867.25 1210.72C1867.25 1210.72 1611.6 1179.76 1499.83 1123.69C1364.19 1055.96 1469.63 976.581 1355.26 901.186C1199.84 799.037 892.144 849.038 758.004 740.838C625.364 634.431 867.639 546.569 763.682 434.085C682.626 344.811 385.98 339.677 408.022 245.857C436.668 124.117 824.767 281.616 1083.58 258.861C1322.62 237.878 1430.04 204.159 1641.23 156.961C1737.6 135.986 1878 98.5303 1884.36 99.2337C2026.91 76.4403 2032.99 76.3178 2032.99 76.3178M1868.59 1191.82C1868.59 1191.82 1626.1 1157.1 1516.06 1101.13C1384.17 1034.67 1480.83 958.805 1367.9 885.592C1213.36 785.998 912.773 833.577 782.467 726.969C654.767 623.633 887.941 538.729 787.972 429.566C708.043 339.189 403.718 335.64 425.898 240.917C453.984 121.33 828.073 268.334 1082.34 246.045C1321.3 225.159 1424.34 201.068 1635.25 159.52C1732.54 141.427 1868.99 107.332 1881.72 108.738C2021.12 87.5251 2033.28 87.28 2033.28 87.28M1869.92 1172.92C1869.92 1172.92 1640.6 1134.44 1532.29 1078.57C1404.16 1013.38 1492.04 941.03 1380.53 869.998C1226.88 772.959 933.402 818.115 806.931 713.1C684.17 612.835 908.244 530.89 812.262 425.048C733.461 333.566 421.455 331.603 443.774 235.978C471.3 118.542 831.379 255.052 1081.1 233.228C1319.99 212.44 1418.63 197.977 1629.28 162.079C1727.48 146.867 1859.98 116.133 1879.07 118.243C2015.33 98.6099 2033.57 98.2421 2033.57 98.2421M1871.26 1154.02C1871.26 1154.02 1655.1 1111.78 1548.51 1056.01C1424.14 992.091 1503.25 923.254 1393.17 854.404C1240.4 759.92 954.031 802.653 831.394 699.23C713.573 602.038 928.546 523.05 836.552 420.529C758.879 327.944 439.193 327.567 461.65 231.039C488.616 115.754 834.685 241.77 1079.85 220.412C1318.67 199.721 1412.93 194.886 1623.3 164.638C1722.41 152.307 1850.98 124.934 1876.43 127.748C2009.54 109.695 2033.86 109.204 2033.86 109.204M1872.6 1135.12C1872.6 1135.12 1669.6 1089.12 1564.74 1033.45C1444.13 970.801 1514.45 905.478 1405.81 838.81C1253.92 746.881 974.66 787.191 855.857 685.361C742.975 591.24 948.848 515.211 860.842 416.011C784.296 322.322 456.93 323.53 479.525 226.099C505.932 112.966 837.991 228.488 1078.61 207.596C1317.35 187.002 1407.22 191.794 1617.33 167.196C1717.35 157.748 1841.97 133.736 1873.78 137.253C2003.75 120.779 2034.15 120.167 2034.15 120.167M1873.94 1116.22C1873.94 1116.22 1684.1 1066.46 1580.96 1010.89C1464.11 949.511 1525.66 887.703 1418.45 823.216C1267.44 733.842 995.289 771.729 880.32 671.492C772.378 580.442 969.15 507.371 885.132 411.493C809.714 316.699 474.668 319.494 497.401 221.16C523.248 110.179 841.297 215.206 1077.36 194.779C1316.04 174.282 1401.52 188.703 1611.35 169.755C1712.29 163.188 1832.96 142.537 1871.13 146.757C1997.96 131.864 2034.45 131.129 2034.45 131.129M1875.27 1097.32C1875.27 1097.32 1698.6 1043.8 1597.19 988.327C1484.1 928.221 1536.86 869.927 1431.09 807.623C1280.96 720.803 1015.92 756.267 904.783 657.623C801.781 569.645 989.452 499.531 909.423 406.974C835.132 311.077 492.405 315.457 515.277 216.22C540.564 107.391 844.603 201.924 1076.12 181.963C1314.72 161.563 1395.81 185.612 1605.38 172.314C1707.23 168.628 1823.95 151.338 1868.49 156.262C1992.17 142.949 2034.74 142.091 2034.74 142.091M1877.95 1059.52C1877.95 1059.52 1727.6 998.483 1629.64 943.207C1524.07 885.641 1559.28 834.376 1456.37 776.435C1308 694.724 1057.18 725.343 953.709 629.884C860.586 548.05 1030.06 483.852 958.003 397.937C885.968 299.832 527.88 307.384 551.028 206.342C575.197 101.816 851.215 175.36 1073.63 156.33C1312.09 136.125 1384.41 179.429 1593.43 177.431C1697.1 179.509 1805.94 168.941 1863.2 175.272C1980.59 165.119 2035.32 164.015 2035.32 164.015M1825.23 1039.05C1825.23 1039.05 1634.57 972.612 1500.75 916.274C1359.2 858.752 1395.5 811.27 1254.41 754.288C1049.38 673.358 711.685 698.75 572.883 603.652C450.063 523.803 671.963 464.373 577.006 380.923C477.991 280.811 -29.046 285.714 2.5102 183.957C34.5103 81.7729 398.211 147.913 700.121 131.86C1030.48 114.501 1125.04 168.263 1414.48 174.339C1559.51 180.516 1704.88 174.519 1793.14 182.296C1951.47 175.042 2035.77 174.52 2035.77 174.52M1880.63 1021.72C1880.63 1021.72 1756.6 953.164 1662.09 898.086C1564.04 843.06 1581.69 798.825 1481.64 745.247C1335.04 668.646 1098.43 694.42 1002.64 602.146C919.392 526.454 1070.66 468.173 1006.58 388.901C936.803 288.587 563.355 299.311 586.78 196.463C609.828 96.24 857.827 148.796 1071.14 130.697C1309.46 110.687 1373 173.247 1581.48 182.549C1686.98 190.39 1787.92 186.544 1857.9 194.281C1969.01 187.288 2035.9 185.94 2035.9 185.94M1883.3 983.92C1883.3 983.92 1785.6 907.844 1694.54 852.966C1604.01 800.48 1604.1 763.274 1506.92 714.06C1362.08 642.568 1139.69 663.496 1051.56 574.407C978.197 504.859 1111.26 452.494 1055.16 379.864C987.638 277.342 598.83 291.238 622.531 186.584C644.461 90.6645 864.439 122.232 1068.65 105.064C1306.82 85.249 1361.59 167.064 1569.52 187.666C1676.85 201.271 1769.9 204.146 1852.61 213.29C1957.43 209.458 2036.48 207.864 2036.48 207.864M1884.64 965.02C1884.64 965.02 1800.1 885.185 1710.77 830.406C1624 779.19 1615.31 745.498 1519.56 698.466C1375.6 629.529 1160.32 648.034 1076.02 560.538C1007.6 494.061 1131.57 444.654 1079.45 375.346C1013.06 271.72 616.568 287.201 640.407 181.645C661.777 87.8767 867.745 108.95 1067.4 92.2477C1305.51 72.5299 1355.88 163.973 1563.55 190.225C1671.79 206.711 1760.9 212.948 1849.97 222.795C1951.64 220.542 2036.77 218.826 2036.77 218.826M1887.32 927.22C1887.32 927.22 1829.1 839.866 1743.22 785.286C1663.97 736.61 1637.72 709.947 1544.84 667.278C1402.64 603.451 1201.58 617.11 1124.95 532.8C1066.41 472.466 1172.17 428.975 1128.03 366.309C1063.89 260.475 652.043 279.128 676.158 171.766C696.409 82.3013 874.357 82.3865 1064.91 66.6149C1302.87 47.0918 1344.48 157.79 1551.6 195.343C1661.66 217.592 1742.88 230.55 1844.67 241.805C1940.06 242.712 2037.36 240.751 2037.36 240.751M1888.65 908.32C1888.65 908.32 1843.6 817.206 1759.45 762.726C1683.95 715.32 1648.93 692.172 1557.48 651.684C1416.16 590.411 1222.21 601.648 1149.41 518.93C1095.81 461.668 1192.47 421.135 1152.32 361.79C1089.31 254.852 669.78 275.091 694.034 166.827C713.725 79.5135 877.663 69.1046 1063.67 53.7985C1301.56 34.3727 1338.77 154.699 1545.62 197.901C1656.6 223.032 1733.87 239.352 1842.03 251.309C1934.27 253.797 2037.65 251.713 2037.65 251.713M1889.99 889.419C1889.99 889.419 1858.1 794.546 1775.67 740.165C1703.94 694.03 1660.13 674.396 1570.12 636.09C1429.68 577.372 1242.84 586.186 1173.88 505.061C1125.21 450.871 1212.78 413.295 1176.61 357.272C1114.73 249.23 687.518 271.054 711.91 161.887C731.041 76.7257 880.97 55.8226 1062.42 40.982C1300.24 21.6536 1333.07 151.608 1539.65 200.46C1651.54 228.472 1724.86 248.153 1839.38 260.814C1928.48 264.882 2037.94 262.675 2037.94 262.675M1891.33 870.519C1891.33 870.519 1872.6 771.887 1791.9 717.605C1723.93 672.74 1671.34 656.621 1582.76 620.497C1443.2 564.333 1263.47 570.724 1198.34 491.192C1154.61 440.073 1233.08 405.456 1200.9 352.754C1140.14 243.608 705.255 267.018 729.785 156.948C748.357 73.938 884.275 42.5407 1061.18 28.1657C1298.92 8.93458 1327.36 148.517 1533.67 203.019C1646.48 233.913 1715.86 256.954 1836.74 270.319C1922.69 275.966 2038.23 273.637 2038.23 273.637M1892.67 851.619C1892.67 851.619 1887.1 749.227 1808.13 695.045C1743.91 651.45 1682.55 638.845 1595.39 604.903C1456.72 551.294 1284.09 555.262 1222.8 477.323C1184.02 429.276 1253.38 397.616 1225.19 348.235C1165.56 237.985 722.993 262.981 747.661 152.008C765.673 71.1502 887.582 29.2587 1059.93 15.3492C1297.61 -3.78456 1321.66 145.426 1527.7 205.578C1641.41 239.353 1706.85 265.756 1834.09 279.823C1916.9 287.051 2038.52 284.599 2038.52 284.599" stroke="#666666" stroke-opacity="0.1" stroke-width="2"/>
</svg>
