<svg width="2357" height="1348" viewBox="0 0 2357 1348" fill="none" xmlns="http://www.w3.org/2000/svg">
<path d="M0.201439 35.3047C0.201439 35.3047 303.369 -17.64 444.312 8.38422C617.435 40.3505 515.973 165.104 665.652 213.594C867.669 279.04 1198.31 125.791 1381.67 202.364C1564.51 278.717 1314.68 454.091 1466.79 546.378C1582.61 616.64 1901.99 535.343 1904.84 642.65C1908.64 785.729 1418.26 727.111 1135.67 832.977C879.117 929.089 768.848 1010.29 551.861 1132.32C453.908 1187.41 307.165 1275.84 307.165 1275.84L154.183 1346.88M84.2917 473.61C84.2917 473.61 106.694 590.859 207.215 625.732C285.883 653.024 365.572 641.364 468.933 649.475C635.082 662.512 816.461 610.104 901.691 675.147C951.899 713.463 894.012 763.007 933.935 805.455C1030.45 908.077 1517.36 741.289 1522.51 870.011C1526.13 960.57 1422.78 1050.36 1242.34 1116.35C986.844 1209.78 919.24 1043.85 674.145 1035.68C537.606 1031.13 461.44 1017.76 310.396 1042.72C220.331 1057.6 80.7938 1099.53 80.7938 1099.53M9.94582 54.756C9.94582 54.756 299.743 9.91575 438.761 36.3614C607.387 68.105 514.551 186.363 662.024 232.93C862.334 295.881 1185.86 147.433 1364.55 223.457C1541.08 297.999 1300.38 467.381 1447.16 557.294C1562.06 629.098 1889.41 543.73 1892.37 652.057C1896.16 792.635 1424.22 741.083 1146.49 845.05C889.987 941.036 781.75 1010.47 563.424 1126.3C463.634 1178.55 320.252 1262.13 313.059 1263.32C163.072 1331.69 156.428 1333.68 156.428 1333.68M13.9501 75.6277C13.9501 75.6277 290.378 38.8919 427.471 65.7589C591.599 97.28 507.389 209.042 652.657 253.686C851.258 314.141 1167.68 170.496 1341.7 245.97C1511.91 318.701 1280.35 482.092 1421.79 569.631C1535.77 642.976 1871.1 553.536 1874.17 662.884C1877.95 800.96 1424.43 756.476 1151.57 858.544C895.117 954.402 788.911 1012.06 569.247 1121.7C467.619 1171.1 327.598 1249.84 313.213 1252.22C166.222 1317.91 152.933 1321.91 152.933 1321.91M17.9544 96.4994C17.9544 96.4994 281.012 67.868 416.181 95.1564C575.811 126.455 500.227 231.721 643.289 274.443C840.183 332.402 1149.5 193.558 1318.84 268.484C1482.74 339.403 1260.32 496.802 1396.41 581.968C1509.47 656.854 1852.78 563.343 1855.96 673.71C1859.74 809.286 1424.65 771.869 1156.65 872.038C900.247 967.768 796.073 1013.66 575.07 1117.09C471.605 1163.66 334.945 1237.55 313.367 1241.12C169.372 1304.14 149.438 1310.13 149.438 1310.13M21.9587 117.371C21.9587 117.371 271.647 96.8442 404.89 124.554C560.022 155.63 493.065 254.4 633.922 295.199C829.107 350.662 1131.31 216.621 1295.99 290.997C1453.56 360.106 1240.29 511.512 1371.04 594.305C1483.18 670.732 1834.47 573.15 1837.75 684.537C1841.52 817.612 1424.86 787.261 1161.73 885.531C905.377 981.135 803.234 1015.26 580.893 1112.49C475.59 1156.22 342.291 1225.26 313.521 1230.02C172.522 1290.36 145.944 1298.35 145.944 1298.35M25.963 138.243C25.963 138.243 262.281 125.82 393.6 153.951C544.234 184.805 485.903 277.079 624.554 315.955C818.032 368.923 1113.13 239.683 1273.13 313.511C1424.39 380.808 1220.26 526.222 1345.66 606.642C1456.89 684.609 1816.15 582.957 1819.55 695.364C1823.31 825.937 1425.08 802.654 1166.81 899.025C910.507 994.501 810.396 1016.86 586.716 1107.89C479.576 1148.78 349.637 1212.97 313.675 1218.91C175.672 1276.59 142.449 1286.57 142.449 1286.57M29.9673 159.114C29.9673 159.114 252.916 154.797 382.31 183.349C528.446 213.98 478.741 299.758 615.187 336.711C806.956 387.183 1094.95 262.746 1250.27 336.024C1395.22 401.51 1200.23 540.933 1320.29 618.979C1430.59 698.487 1797.84 592.764 1801.34 706.19C1805.09 834.263 1425.29 818.047 1171.89 912.519C915.636 1007.87 817.558 1018.46 592.539 1103.29C483.562 1141.34 356.984 1200.68 313.828 1207.81C178.822 1262.81 138.954 1274.79 138.954 1274.79M33.9716 179.986C33.9716 179.986 243.55 183.773 371.019 212.746C512.658 243.155 471.579 322.437 605.819 357.467C795.88 405.444 1076.76 285.808 1227.42 358.538C1366.05 422.212 1180.19 555.643 1294.91 631.316C1404.3 712.365 1779.52 602.571 1783.14 717.017C1786.88 842.589 1425.51 833.439 1176.97 926.012C920.766 1021.23 824.719 1020.06 598.362 1098.69C487.547 1133.9 364.33 1188.39 313.982 1196.71C181.972 1249.04 135.46 1263.01 135.46 1263.01M41.9801 221.729C41.9801 221.729 224.819 241.725 348.439 271.541C481.081 301.504 457.255 367.795 587.084 398.98C773.729 441.965 1040.4 331.933 1181.7 403.565C1307.7 463.616 1140.13 585.064 1244.17 655.99C1351.71 740.121 1742.89 622.185 1746.72 738.671C1750.45 859.241 1425.94 864.224 1187.13 953C931.026 1047.97 839.042 1023.25 610.009 1089.48C495.519 1119.01 379.023 1163.81 314.29 1174.51C188.272 1221.49 128.47 1239.46 128.47 1239.46M105.825 227.728C105.825 227.728 334.511 241.217 497.823 261.193C669.98 280.079 643.86 342.61 815.348 361.054C1064.02 385.823 1427.63 254.824 1607.64 315.234C1765.69 364.034 1539.14 496.39 1667.62 557.628C1805.39 635.662 2360.96 474.937 2355.76 594.774C2350.2 715.209 1931.52 755.085 1604.52 865.006C1246.64 985.061 1127.19 955.84 807.482 1037.98C646.369 1075.75 488.418 1126.8 389.216 1145.43C217.384 1201.82 124.931 1228.22 124.931 1228.22M49.9887 263.473C49.9887 263.473 206.088 299.677 325.858 330.336C449.505 359.854 442.931 413.153 568.349 440.492C751.578 478.486 1004.03 378.058 1135.99 448.592C1249.36 505.021 1100.07 614.484 1193.42 680.664C1299.13 767.877 1706.26 641.799 1710.31 760.324C1714.02 875.892 1426.37 895.01 1197.29 979.988C941.286 1074.7 853.365 1026.45 621.655 1080.28C503.49 1104.13 393.716 1139.23 314.597 1152.31C194.572 1193.93 121.481 1215.9 121.481 1215.9M57.9974 305.216C57.9974 305.216 187.358 357.63 303.277 389.131C417.929 418.204 428.607 458.511 549.613 482.005C729.427 515.007 967.666 424.183 1090.28 493.618C1191.01 546.425 1060 643.905 1142.67 705.338C1246.54 795.633 1669.63 661.413 1673.9 781.977C1677.59 892.543 1426.8 925.795 1207.45 1006.97C951.546 1101.43 867.688 1029.64 633.301 1071.08C511.461 1089.25 408.409 1114.65 314.905 1130.11C200.871 1166.38 114.491 1192.34 114.491 1192.34M62.0016 326.088C62.0016 326.088 177.992 386.606 291.987 418.529C402.141 447.379 421.446 481.191 540.246 502.761C718.351 533.268 949.483 447.246 1067.42 516.132C1161.84 567.127 1039.97 658.615 1117.29 717.676C1220.25 809.511 1651.31 671.22 1655.69 792.804C1659.38 900.869 1427.01 941.188 1212.52 1020.47C956.675 1114.8 874.85 1031.24 639.124 1066.47C515.447 1081.8 415.755 1102.37 315.059 1119.01C204.021 1152.61 110.997 1180.56 110.997 1180.56M70.0102 367.831C70.0102 367.831 159.261 444.558 269.406 477.324C370.564 505.729 407.122 526.549 521.511 544.273C696.2 569.789 913.117 493.371 1021.71 561.159C1103.5 608.532 999.91 688.035 1066.55 742.35C1167.66 837.267 1614.68 690.834 1619.28 814.457C1622.95 917.521 1427.44 971.973 1222.68 1047.46C966.935 1141.53 889.173 1034.44 650.77 1057.27C523.418 1066.92 430.448 1077.79 315.367 1096.8C210.321 1125.06 104.007 1157.01 104.007 1157.01M74.0145 388.703C74.0145 388.703 149.896 473.534 258.116 506.722C354.776 534.904 399.96 549.228 512.143 565.03C685.124 588.05 894.934 516.433 998.855 583.672C1074.33 629.234 979.879 702.746 1041.17 754.687C1141.37 851.145 1596.36 700.641 1601.08 825.284C1604.73 925.846 1427.66 987.365 1227.76 1060.95C972.065 1154.9 896.334 1036.04 656.593 1052.67C527.404 1059.48 437.794 1065.5 315.52 1085.7C213.471 1111.28 100.513 1145.23 100.513 1145.23M78.0188 409.574C78.0188 409.574 140.53 502.51 246.826 536.119C338.988 564.079 392.798 571.907 502.776 585.786C674.049 606.31 876.75 539.496 975.999 606.186C1045.15 649.936 959.847 717.456 1015.8 767.024C1115.07 865.023 1578.05 710.448 1582.87 836.111C1586.52 934.172 1427.87 1002.76 1232.84 1074.44C977.195 1168.26 903.496 1037.64 662.416 1048.07C531.389 1052.04 445.141 1053.21 315.674 1074.6C216.621 1097.51 97.0179 1133.45 97.0179 1133.45M82.0232 430.446C82.0232 430.446 131.165 531.486 235.535 565.517C323.2 593.254 385.636 594.586 493.408 606.542C662.973 624.571 858.567 562.558 953.143 628.699C1015.98 670.638 939.815 732.166 990.423 779.361C1088.78 878.901 1559.73 720.255 1564.66 846.937C1568.3 942.498 1428.09 1018.15 1237.92 1087.94C982.325 1181.63 910.657 1039.23 668.239 1043.47C535.375 1044.6 452.487 1040.92 315.828 1063.5C219.771 1083.73 93.5232 1121.67 93.5232 1121.67M86.0275 451.318C86.0275 451.318 121.799 560.463 224.245 594.914C307.412 622.428 378.474 617.265 484.04 627.298C651.898 642.831 840.384 585.621 930.287 651.213C986.811 691.341 919.784 746.877 965.049 791.698C1062.49 892.779 1541.41 730.062 1546.46 857.764C1550.09 950.824 1428.3 1033.54 1243 1101.43C987.455 1195 917.819 1040.83 674.062 1038.86C539.361 1037.15 459.833 1028.63 315.982 1052.4C222.921 1069.96 90.0285 1109.89 90.0285 1109.89" stroke="#666666" stroke-opacity="0.1" stroke-width="2"/>
</svg>
