<svg width="2113" height="1464" viewBox="0 0 2113 1464" fill="none" xmlns="http://www.w3.org/2000/svg">
<path d="M1951.35 1C1951.35 1 1673.32 24.1866 1555.08 88.1606C1409.84 166.741 1526.17 271.419 1405.14 361.264C1241.78 482.525 917.788 407.484 773.249 535.585C629.124 663.319 886.901 782.605 773.249 919.091C686.72 1023.01 388.272 1020.62 409.109 1134.09C436.893 1285.38 855.228 1096.33 1126.68 1134.09C1373.12 1168.36 1487.72 1225 1705.02 1296.79C1803.11 1329.19 1951.35 1383.95 1951.35 1383.95L2101.29 1418.81M1972.77 483.288C1972.77 483.288 1978.58 612.28 1897.8 675.042C1834.58 724.16 1761.99 732.626 1672.89 768.013C1529.67 824.896 1358.82 816.989 1298.04 907.47C1262.24 960.771 1323.9 997.77 1298.04 1052.74C1235.51 1185.63 771.197 1136.98 794.669 1273.54C811.182 1369.62 921.573 1437.07 1094.55 1459.49C1339.48 1491.23 1362.81 1299.35 1576.5 1227.06C1695.54 1186.79 1759.59 1152.94 1897.8 1139.9C1980.21 1132.12 2112 1139.9 2112 1139.9M1947.01 23.9661C1947.01 23.9661 1682.5 52.191 1566.04 116.107C1424.71 193.285 1532.05 293.381 1412.53 380.633C1250.14 498.828 933.434 426.984 792.884 553.294C653.917 677.484 902.356 792.851 792.884 925.455C707.498 1030.75 401.151 1026.16 422.114 1140.73C449.361 1289.39 853.033 1112.56 1119.79 1149.58C1366.17 1183.74 1476.42 1228.54 1693.54 1293.47C1792.64 1322.41 1936.86 1372.95 1943.44 1372.33C2090.17 1405.16 2096.44 1405.53 2096.44 1405.53M1948.03 46.9322C1948.03 46.9322 1697.04 80.1954 1582.36 144.054C1444.94 219.829 1543.28 315.343 1425.28 400.002C1263.85 515.132 954.435 446.485 817.874 571.002C684.065 691.648 923.165 803.097 817.874 931.819C733.631 1038.49 419.386 1031.7 440.474 1147.37C467.184 1293.4 856.192 1128.78 1118.26 1165.08C1364.56 1199.11 1470.47 1232.08 1687.42 1290.15C1787.51 1315.63 1927.73 1361.95 1940.89 1360.7C2084.4 1391.51 2096.95 1392.25 2096.95 1392.25M1949.05 69.8983C1949.05 69.8983 1711.57 108.2 1598.68 172.001C1465.16 246.373 1554.51 337.305 1438.03 419.371C1277.55 531.435 975.437 465.985 842.864 588.711C714.214 705.813 943.975 813.343 842.864 938.183C759.764 1046.24 437.62 1037.25 458.834 1154.01C485.008 1297.41 859.351 1145.01 1116.73 1180.57C1362.96 1214.49 1464.52 1235.62 1681.3 1286.83C1782.39 1308.85 1918.6 1350.95 1938.34 1349.08C2078.64 1377.86 2097.47 1378.97 2097.47 1378.97M1950.07 92.8645C1950.07 92.8645 1726.11 136.204 1615 199.947C1485.39 272.916 1565.74 359.268 1450.78 438.74C1291.26 547.739 996.438 485.485 867.854 606.42C744.362 719.977 964.785 823.589 867.854 944.548C785.897 1053.98 455.855 1042.79 477.194 1160.65C502.831 1301.42 862.51 1161.23 1115.2 1196.07C1361.36 1229.86 1458.58 1239.16 1675.18 1283.51C1777.27 1302.07 1909.47 1339.95 1935.79 1337.46C2072.87 1364.2 2097.97 1365.69 2097.97 1365.69M1951.09 115.831C1951.09 115.831 1740.65 164.209 1631.32 227.894C1505.61 299.46 1576.96 381.23 1463.53 458.109C1304.97 564.042 1017.44 504.985 892.844 624.129C774.51 734.141 985.594 833.835 892.844 950.912C812.03 1061.73 474.089 1048.33 495.554 1167.29C520.654 1305.43 865.67 1177.46 1113.67 1211.56C1359.76 1245.24 1452.63 1242.7 1669.06 1280.18C1772.15 1295.29 1900.34 1328.95 1933.24 1325.84C2067.11 1350.55 2098.48 1352.4 2098.48 1352.4M1952.11 138.797C1952.11 138.797 1755.18 192.213 1647.64 255.841C1525.84 326.004 1588.19 403.192 1476.28 477.478C1318.68 580.345 1038.44 524.486 917.834 641.838C804.658 748.306 1006.4 844.081 917.834 957.276C838.163 1069.47 492.324 1053.87 513.914 1173.93C538.477 1309.44 868.829 1193.69 1112.14 1227.06C1358.16 1260.61 1446.68 1246.24 1662.94 1276.86C1767.02 1288.51 1891.21 1317.95 1930.69 1314.22C2061.34 1336.9 2098.99 1339.12 2098.99 1339.12M1953.13 161.763C1953.13 161.763 1769.72 220.218 1663.96 283.788C1546.07 352.548 1599.42 425.154 1489.03 496.847C1332.39 596.649 1059.44 543.986 942.824 659.546C834.806 762.47 1027.21 854.327 942.824 963.64C864.296 1077.21 510.558 1059.41 532.274 1180.57C556.301 1313.46 871.988 1209.91 1110.61 1242.55C1356.55 1275.99 1440.73 1249.78 1656.82 1273.54C1761.9 1281.73 1882.07 1306.94 1928.14 1302.6C2055.58 1323.25 2099.5 1325.84 2099.5 1325.84M1955.17 207.695C1955.17 207.695 1798.79 276.226 1696.6 339.681C1586.52 405.635 1621.88 469.079 1514.53 535.585C1359.81 629.256 1101.44 582.986 992.804 694.964C895.103 790.799 1068.83 874.819 992.804 976.368C916.563 1092.7 547.028 1070.49 568.994 1193.85C591.948 1321.48 878.307 1242.36 1107.55 1273.54C1353.35 1306.73 1428.84 1256.86 1644.58 1266.9C1751.66 1268.16 1863.81 1284.94 1923.04 1279.35C2044.04 1295.94 2100.53 1299.28 2100.53 1299.28M1900.35 230.592C1900.35 230.592 1702.25 304.206 1563.03 367.64C1415.8 432.23 1452.36 491.127 1305.62 555.078C1092.4 645.737 744.261 602.639 599.149 712.891C470.827 805.237 698.774 885.386 599.149 983.112C495.016 1100.89 -28.3416 1076.47 2.29166 1201C33.375 1326.07 410.113 1259.13 721.491 1289.6C1062.22 1322.69 1160.86 1260.95 1459.78 1264.13C1609.63 1261.93 1759.59 1274.5 1850.85 1268.28C2014.17 1282.85 2101.19 1286.56 2101.19 1286.56M1957.21 253.627C1957.21 253.627 1827.86 332.235 1729.24 395.574C1626.97 458.723 1644.34 513.003 1540.03 574.323C1387.22 661.862 1143.45 621.987 1042.78 730.382C955.4 819.127 1110.45 895.31 1042.78 989.096C968.829 1108.19 583.497 1081.57 605.714 1207.14C627.594 1329.5 884.625 1274.81 1104.49 1304.53C1350.15 1337.48 1416.94 1263.94 1632.34 1260.26C1741.41 1254.6 1845.55 1262.94 1917.94 1256.11C2032.51 1268.64 2101.55 1272.71 2101.55 1272.71M1959.25 299.559C1959.25 299.559 1856.94 388.244 1761.88 451.468C1667.42 511.81 1666.8 556.928 1565.53 613.061C1414.64 694.469 1185.45 660.987 1092.76 765.799C1015.7 847.456 1152.07 915.802 1092.76 1001.82C1021.09 1123.68 619.966 1092.66 642.434 1220.42C663.241 1337.52 890.944 1307.26 1101.43 1335.52C1346.94 1368.23 1405.04 1271.02 1620.1 1253.62C1731.17 1241.04 1827.29 1240.94 1912.84 1232.87C2020.98 1241.34 2102.57 1246.15 2102.57 1246.15M1960.27 322.526C1960.27 322.526 1871.47 416.249 1778.2 479.415C1687.65 538.354 1678.03 578.89 1578.28 632.43C1428.35 710.773 1206.45 680.488 1117.75 783.508C1045.84 861.621 1172.88 926.048 1117.75 1008.19C1047.23 1131.42 638.2 1098.2 660.794 1227.06C681.064 1341.54 894.103 1323.49 1099.9 1351.02C1345.34 1383.61 1399.1 1274.56 1613.98 1250.3C1726.04 1234.26 1818.15 1229.94 1910.29 1221.25C2015.22 1227.69 2103.08 1232.87 2103.08 1232.87M1962.31 368.458C1962.31 368.458 1900.55 472.257 1810.84 535.308C1728.1 591.441 1700.49 622.815 1603.78 671.168C1455.77 743.379 1248.45 719.488 1167.73 818.926C1106.14 889.949 1214.5 946.54 1167.73 1020.92C1099.49 1146.91 674.67 1109.28 697.514 1240.34C716.711 1349.56 900.422 1355.94 1096.84 1382.01C1342.13 1414.36 1387.2 1281.65 1601.74 1243.66C1715.8 1220.69 1799.89 1207.94 1905.19 1198C2003.69 1200.38 2104.1 1206.31 2104.1 1206.31M1963.33 391.424C1963.33 391.424 1915.08 500.262 1827.16 563.255C1748.32 617.985 1711.72 644.777 1616.53 690.537C1469.48 759.683 1269.46 738.988 1192.72 836.635C1136.29 904.114 1235.31 956.786 1192.72 1027.28C1125.63 1154.65 692.904 1114.82 715.874 1246.98C734.534 1353.57 903.581 1372.17 1095.31 1397.51C1340.53 1429.73 1381.25 1285.19 1595.62 1240.34C1710.68 1213.91 1790.76 1196.94 1902.64 1186.38C1997.92 1186.73 2104.61 1193.02 2104.61 1193.02M1964.35 414.39C1964.35 414.39 1929.62 528.266 1843.48 591.202C1768.55 644.529 1722.95 666.739 1629.28 709.906C1483.18 775.986 1290.46 758.489 1217.71 854.343C1166.44 918.278 1256.12 967.032 1217.71 1033.65C1151.76 1162.4 711.139 1120.36 734.234 1253.62C752.357 1357.58 906.74 1388.39 1093.78 1413C1338.93 1445.11 1375.3 1288.73 1589.5 1237.02C1705.55 1207.13 1781.63 1185.94 1900.09 1174.76C1992.15 1173.08 2105.12 1179.74 2105.12 1179.74M1965.37 437.356C1965.37 437.356 1944.15 556.271 1859.8 619.148C1788.77 671.072 1734.18 688.701 1642.03 729.275C1496.89 792.289 1311.46 777.989 1242.7 872.052C1196.59 932.442 1276.93 977.278 1242.7 1040.01C1177.89 1170.14 729.373 1125.9 752.594 1260.26C770.18 1361.59 909.899 1404.62 1092.25 1428.5C1337.33 1460.48 1369.36 1292.27 1583.38 1233.7C1700.43 1200.35 1772.5 1174.94 1897.54 1163.14C1986.39 1159.43 2105.62 1166.46 2105.62 1166.46M1966.39 460.322C1966.39 460.322 1958.69 584.275 1876.12 647.095C1809 697.616 1745.41 710.664 1654.78 748.644C1510.6 808.593 1332.46 797.489 1267.69 889.761C1226.73 946.607 1297.74 987.524 1267.69 1046.37C1204.03 1177.88 747.608 1131.44 770.954 1266.9C788.004 1365.6 913.059 1420.84 1090.72 1443.99C1335.73 1475.85 1363.41 1295.81 1577.26 1230.38C1695.31 1193.57 1763.37 1163.94 1894.99 1151.52C1980.62 1145.77 2106.13 1153.18 2106.13 1153.18" stroke="#666666" stroke-opacity="0.1" stroke-width="2"/>
</svg>
